<?xml version="1.0" encoding="UTF-8" standalone="no"?>
<!-- Created with Inkscape (http://www.inkscape.org/) -->

<svg
   version="1.1"
   id="svg1"
   width="682.66669"
   height="682.66669"
   viewBox="0 0 682.66669 682.66669"
   sodipodi:docname="icon.svg"
   inkscape:version="1.4.2 (ebf0e940d0, 2025-05-08)"
   xmlns:inkscape="http://www.inkscape.org/namespaces/inkscape"
   xmlns:sodipodi="http://sodipodi.sourceforge.net/DTD/sodipodi-0.dtd"
   xmlns:xlink="http://www.w3.org/1999/xlink"
   xmlns="http://www.w3.org/2000/svg"
   xmlns:svg="http://www.w3.org/2000/svg">
  <defs
     id="defs1">
    <linearGradient
       id="linearGradient12"
       inkscape:collect="always">
      <stop
         style="stop-color:#0094ff;stop-opacity:1;"
         offset="0"
         id="stop13" />
      <stop
         style="stop-color:#7597ff;stop-opacity:1;"
         offset="0.15536611"
         id="stop15" />
      <stop
         style="stop-color:#9b47ff;stop-opacity:1;"
         offset="0.6565491"
         id="stop16" />
      <stop
         style="stop-color:#ff6aff;stop-opacity:1;"
         offset="1"
         id="stop14" />
    </linearGradient>
    <linearGradient
       id="linearGradient4">
      <stop
         style="stop-color:#0000ff;stop-opacity:1;"
         offset="0"
         id="stop7" />
      <stop
         style="stop-color:#000000;stop-opacity:0;"
         offset="0.60828573"
         id="stop8" />
    </linearGradient>
    <linearGradient
       id="linearGradient4-1">
      <stop
         style="stop-color:#7f00ad;stop-opacity:1;"
         offset="0.16637053"
         id="stop5" />
      <stop
         style="stop-color:#0000ff;stop-opacity:0;"
         offset="1"
         id="stop6" />
    </linearGradient>
    <linearGradient
       inkscape:collect="always"
       xlink:href="#linearGradient12"
       id="linearGradient14"
       x1="104.28998"
       y1="586.79889"
       x2="578.37671"
       y2="95.867752"
       gradientUnits="userSpaceOnUse" />
  </defs>
  <sodipodi:namedview
     id="namedview1"
     pagecolor="#ffffff"
     bordercolor="#000000"
     borderopacity="0.25"
     inkscape:showpageshadow="2"
     inkscape:pageopacity="0.0"
     inkscape:pagecheckerboard="0"
     inkscape:deskcolor="#d1d1d1"
     inkscape:zoom="1.2377929"
     inkscape:cx="341.7373"
     inkscape:cy="341.33335"
     inkscape:window-width="1920"
     inkscape:window-height="1080"
     inkscape:window-x="0"
     inkscape:window-y="0"
     inkscape:window-maximized="1"
     inkscape:current-layer="g1" />
  <g
     inkscape:groupmode="layer"
     inkscape:label="Image"
     id="g1">
    <path
       style="fill:url(#linearGradient14);stroke:none;fill-opacity:1"
       d="M 538.9273,243.69168 V 83.691678 c 0,-22.619426 4.76136,-50.066774 -12.12447,-67.980471 C 502.86586,-9.6828355 449.49159,1.0250095 417.59397,1.0250095 H 122.92729 c -34.365946,0 -92.1363,-12.0000005 -114.9475399,20.0000005 -9.68886,13.591715 -7.71913001,30.890788 -7.71913001,46.666668 v 92.000002 362.66668 96 c 0,19.151 -1.23756,37.32211 13.38682991,51.9465 13.97058,13.97058 30.89699,13.38684 49.279834,13.38684 h 68.000006 269.33334 73.33334 c 13.21183,0 27.78422,1.60848 40,-4.50411 31.62077,-15.82259 25.33333,-52.88477 25.33333,-82.16256 V 451.69169 c 0,-20.41455 -4.5332,-46.89445 0.42387,-66.66667 3.54435,-14.13725 26.77824,-29.86881 36.90947,-40 l 66.66667,-66.66667 c 11.859,-11.85901 26.56539,-23.50647 34.30143,-38.66667 18.83488,-36.9104 -15.09054,-80.11515 -55.63477,-69.43416 -14.58838,3.84318 -24.39481,15.16231 -34.66667,25.43416 l -48,48 M 156.26062,27.691676 V 54.358344 H 84.260624 c -10.24037,0 -21.95842,-1.987386 -28.34363,8.020589 -5.74332,9.001913 -2.32304,26.959108 -2.32304,37.31275 v 90.666667 314.66668 84 c 0,9.46688 -2.95018,25.04765 2.32304,33.31274 7.55034,11.83419 25.66301,8.02059 37.67696,8.02059 h 89.333336 c 10.53233,0 27.78166,3.2688 37.32819,-1.57202 10.90694,-5.53064 10.90692,-17.99198 0,-23.52262 -10.40456,-5.27588 -29.81885,-1.57203 -41.32819,-1.57203 H 140.26062 80.260624 V 81.025011 h 75.999996 c 0.37526,18.083662 11.88213,34.553269 29.33334,40.333339 12.89803,4.27197 27.92122,2.33333 41.33333,2.33333 h 77.33334 c 16.12931,0 35.30198,2.85405 50.66667,-2.79114 16.78418,-6.16675 27.63525,-22.300817 28,-39.875529 h 76 v 169.333339 50.66667 c 0,6.87093 1.59961,16.14612 -0.80452,22.66667 -3.1272,8.48169 -12.83497,13.52889 -17.37757,21.33333 -11.60583,19.93954 -19.21594,43.00895 -28.79219,64 -3.9559,8.67123 -15.13355,25.06018 -10.11935,34.60905 9.72428,18.51856 43.61381,-6.9222 57.09363,-10.60905 v 170.66667 h -60 -38.66667 c -11.50932,0 -30.92362,-3.70385 -41.32819,1.57203 -10.90694,5.53064 -10.90692,17.99198 0,23.52262 9.54655,4.84082 26.79584,1.57202 37.32819,1.57202 h 88 c 11.75717,0 29.94764,3.77971 38.08846,-6.7253 8.91187,-11.49996 3.24488,-41.81759 3.24488,-55.94137 v -148 l 26.66667,-10.66667 v 176.00001 c 0,16.4943 6.65979,52.12178 -4.52572,65.1934 -7.3398,8.57747 -18.68193,6.8066 -28.80762,6.8066 H 412.26063 134.92729 61.593954 c -10.42895,0 -22.567284,2.04423 -30.140954,-6.8066 -7.96917,-9.31299 -4.52572,-27.08777 -4.52572,-38.52674 v -100 -349.33334 -90.666672 c 0,-10.646688 -3.0698,-26.87378 3.53704,-35.942384 7.99687,-10.976563 23.271264,-8.057618 35.129634,-8.057618 h 90.666666 m 200.00001,0 v 45.333335 c 0,6.787354 1.0389,14.446534 -4.30452,19.628622 -8.17204,7.925287 -26.56053,4.37138 -37.02881,4.37138 h -93.33334 c -9.96604,0 -26.55827,3.196857 -34.36214,-4.37138 -5.34341,-5.182048 -4.30453,-12.841227 -4.30453,-19.628622 V 27.691676 H 356.26063 M 485.59397,297.02502 V 118.35835 c 0,-15.31653 6.57763,-50.44601 -6.7253,-60.755133 -7.14917,-5.540243 -19.42579,-3.244873 -27.94137,-3.244873 h -68 V 27.691676 h 89.33333 c 10.93803,0 25.89608,-2.867269 34.38168,5.618327 12.53935,12.539348 5.61833,49.692914 5.61833,66.38168 V 218.35835 c 0,14.95251 4.37064,37.96375 -0.80453,52 -3.59049,9.73828 -17.55977,20.81836 -25.86214,26.66667 M 126.93244,162.01472 c -9.5516,3.70044 -9.33793,13.09595 -9.33848,21.67696 v 60 c 0,7.47315 -1.82765,17.65284 3.24485,23.85494 5.97815,7.30945 16.36169,5.4784 24.75515,5.4784 h 50.66667 c 7.28851,0 17.10227,1.68058 23.99485,-0.98971 9.55157,-3.70044 9.33793,-13.09594 9.33848,-21.67696 v -60 c 0,-7.47327 1.8277,-17.65279 -3.24485,-23.85494 -5.97813,-7.30941 -16.3617,-5.4784 -24.75515,-5.4784 h -50.66667 c -7.28848,0 -17.10227,-1.68058 -23.99485,0.98971 m 249.32819,13.33333 c -14.67456,5.58126 -29.00647,26.68344 -40,37.67697 -3.54806,3.54805 -8.2794,10.39713 -13.33333,11.72428 -12.93061,3.39559 -24.18352,-33.59277 -40.75515,-16.49898 -4.11314,4.24275 -4.15235,11.95027 -1.107,16.7747 6.96633,11.03601 30.05424,38.01798 44.52881,34.08846 8.00507,-2.17318 14.36831,-11.12342 20,-16.75513 14.49707,-14.49707 36.46106,-30.10535 46.54631,-48 6.21261,-11.02328 -3.61739,-23.67407 -15.87964,-19.0103 m -173.33334,12.34363 v 58.66667 h -58.66667 v -58.66667 h 58.66667 m 408.00001,22.66667 c 2.98157,-4.22986 6.35014,-8.16276 10.66667,-11.12964 16.25818,-11.17472 38.60352,3.88017 33.95577,23.12964 -1.43404,5.93933 -9.14766,18.55412 -16.62243,14.99797 -4.6084,-2.19247 -8.44963,-7.44784 -12,-10.99797 l -16.00001,-16 m 12.00001,48 v 1.33333 l -88.00001,88.00001 c -6.45345,6.45345 -22.52124,29.05762 -32,29.05762 -9.23523,0 -24.36373,-21.42135 -30.66667,-27.72429 23.49842,-33.35881 60.45268,-61.78601 89.33334,-90.66667 6.23584,-6.23584 21.46977,-27.72428 30.66667,-27.72428 9.23531,0 24.36369,21.4213 30.66667,27.72428 m -495.99487,50.32304 c -9.5516,3.70044 -9.33793,13.09595 -9.33848,21.67696 v 60 c 0,7.47319 -1.82766,17.65284 3.24485,23.85495 5.97813,7.30944 16.3617,5.47839 24.75515,5.47839 h 50.66667 c 7.28853,0 17.10225,1.68058 23.99485,-0.98971 9.55159,-3.7004 9.33793,-13.09598 9.33848,-21.67696 v -60 c 0,-7.47319 1.82768,-17.65279 -3.24485,-23.85494 -5.97815,-7.30945 -16.3617,-5.47839 -24.75515,-5.47839 h -50.66667 c -7.28848,0 -17.10227,-1.68059 -23.99485,0.9897 m 249.32819,13.33333 c -14.67456,5.58126 -29.00647,26.68344 -40,37.67697 -3.54808,3.54809 -8.27942,10.39713 -13.33333,11.72428 -12.93061,3.39559 -24.18354,-33.59277 -40.75515,-16.49898 -4.11316,4.24276 -4.15235,11.95028 -1.107,16.7747 6.96629,11.03593 30.0543,38.01798 44.52881,34.08846 8.00503,-2.17318 14.36831,-11.12346 20,-16.75513 14.49707,-14.49707 36.46102,-30.10531 46.54631,-48 6.21261,-11.02327 -3.61739,-23.67407 -15.87964,-19.0103 m -173.33334,12.34363 v 58.66667 h -58.66667 v -58.66667 h 58.66667 m 256.00001,37.33334 20,22.66667 -38.66667,17.33333 c 2.87415,-12.10051 9.7913,-31.21135 18.66667,-40 m -331.99486,83.65637 c -9.55159,3.7004 -9.33793,13.09599 -9.33848,21.67696 v 60.00001 c 0,7.47318 -1.82766,17.65279 3.24485,23.85494 5.97813,7.30944 16.3617,5.47839 24.75515,5.47839 h 50.66667 c 7.28849,0 17.10227,1.68058 23.99485,-0.98971 9.55161,-3.70043 9.33793,-13.09598 9.33848,-21.67696 v -60 c 0,-7.47323 1.82768,-17.65279 -3.24485,-23.85494 -5.97815,-7.30945 -16.36168,-5.47839 -24.75515,-5.47839 h -50.66667 c -7.28847,0 -17.10229,-1.68059 -23.99485,0.9897 m 209.32819,73.67697 h 1.33333 c 5.37089,7.62459 15.02588,19.90173 24,23.19547 9.53276,3.49878 19.04525,-3.71085 17.48971,-13.86214 -1.73726,-11.33708 -20.08228,-17.67668 -20.08228,-28 0,-10.17806 18.19072,-16.89234 20.18925,-28 1.82976,-10.16952 -8.24621,-17.29403 -17.59668,-13.86214 -8.97412,3.29378 -18.62911,15.57088 -24,23.19547 -7.42326,-7.42326 -16.28202,-20.21785 -26.66666,-23.31482 -10.09005,-3.00911 -19.59652,4.67143 -16.75411,15.31482 2.67785,10.0273 20.68003,16.69808 20.68003,26.66667 0,10.861 -19.46088,16.48006 -21.05556,28 -1.41659,10.23324 7.49542,16.85465 17.12964,13.98149 9.73571,-2.90345 19.69201,-15.30632 25.33333,-23.31482 M 202.92729,481.02502 v 58.66667 h -58.66667 v -58.66667 h 58.66667 m 62.67182,123.66155 c -15.82923,5.90845 -7.39797,30.42057 7.9897,24.67692 15.82923,-5.90845 7.39797,-30.42057 -7.9897,-24.67692 z"
       id="path1" />
  </g>
</svg>
